<?xml version="1.0" encoding="UTF-8"?>
<svg width="128pt" height="128pt" version="1.1" viewBox="0 0 128 128" xmlns="http://www.w3.org/2000/svg">
 <path d="m103.68 28.32c-0.19922-0.48047-0.48047-0.92187-0.87891-1.3203-0.39844-0.39844-0.83984-0.67969-1.3203-0.87891-0.48047-0.19922-0.96094-0.28125-1.5195-0.32031h-24c-2.1992 0-4 1.8008-4 4s1.8008 4 4 4h14.359l-29.16 29.16c-1.5586 1.5586-1.5586 4.0781 0 5.6406 0.80078 0.80078 1.8008 1.1602 2.8398 1.1602s2.0391-0.39844 2.8398-1.1602l29.16-29.16v14.359c0 2.1992 1.8008 4 4 4s4-1.8008 4-4v-24c0-0.55859-0.12109-1.0391-0.32031-1.5195z"/>
 <path d="m100 65.84c-2.1992 0-4 1.8008-4 4v24c0 2.1992-1.8008 4-4 4h-56c-2.1992 0-4-1.8008-4-4v-56c0-2.1992 1.8008-4 4-4h24c2.1992 0 4-1.8008 4-4 0-2.1992-1.8008-4-4-4h-24c-6.6016 0-12 5.3984-12 12v56c0 6.6016 5.3984 12 12 12h56c6.6016 0 12-5.3984 12-12v-24c0-2.1992-1.8008-4-4-4z"/>
</svg>
